<svg xmlns="http://www.w3.org/2000/svg" xmlns:xlink="http://www.w3.org/1999/xlink" style="vertical-align:-1.755ex" width="6.42ex" height="4.509ex" viewBox="0 -1186 2764.1 1941.5"><defs><path id="a" stroke-width="1" d="M21 287q0 14 15 48t48 71 74 36q41 0 66-23t26-64q-2-19-3-21 0-3-16-46t-33-97-16-86q0-43 14-60t42-18q23 0 43 11t31 23 27 33q0 1 5 20t14 59 19 74q38 150 42 157 13 27 43 27 13 0 21-7t11-12 2-9q0-13-49-210T391-23q-28-83-97-132t-138-50q-45 0-79 22t-34 66q0 22 7 37t19 22 20 10 17 3q44 0 44-42 0-20-12-35t-23-20-13-5l-3-1q2-5 19-12t34-7h8q17 0 26 2 33 9 61 38t43 62 23 56 8 30l-6-4q-6-4-19-11T270-6q-20-5-39-5-46 0-81 22t-46 71q-1 7-1 31 0 57 35 149t35 117v14q0 3-4 7t-11 4h-4q-23 0-42-19t-30-41-17-42-8-22q-2-2-16-2H27q-6 6-6 9z"/><path id="b" stroke-width="1" d="M56 347q0 13 14 20h637q15-8 15-20 0-11-14-19l-318-1H72q-16 5-16 20zm0-194q0 15 16 20h636q14-10 14-20 0-13-15-20H70q-14 7-14 20z"/><path id="c" stroke-width="1" d="M21 287q0 8 9 31t25 52 44 50 59 22q46 0 69-25t23-59q0-18-34-112t-34-141q0-43 14-60t42-18 53 17 37 34l11 17q2 4 38 152 30 120 36 140t14 29q17 15 36 15 17 0 25-10t8-19L420 84q-1-5-1-16 0-25 7-33t21-9q22 3 35 31t30 88q2 8 20 8 19 0 19-9-1-5-2-14t-9-32-17-43-25-38-36-25q-8-2-24-2-66 0-91 56-2-1-11-10t-18-15-22-15-29-12-34-5q-44 0-78 18-52 31-52 106 0 57 35 149t35 117v14q0 3-4 7t-11 4h-4q-23 0-42-19t-30-41-17-42-8-22q-2-2-16-2H27q-6 6-6 9z"/><path id="d" stroke-width="1" d="M173 380q0 25-19 25-24 0-50-29t-43-89q-1-1-2-3t-1-3-2-2-3-1-4 0-8 0H27q-6 6-6 9 0 7 8 29t24 52 44 51 63 22q42 0 65-24t24-56q0-17-3-26 0-6-15-44t-31-89-18-89q0-27 5-44 13-43 63-43 37 0 69 34t50 79 29 83 11 55q0 23-8 40t-18 26-18 18-8 22q0 22 19 41t41 19q19 0 34-18t16-58q0-27-12-83t-37-125-71-119-106-51q-64 0-102 33-37 32-37 95 0 31 8 64t41 117q22 64 22 82z"/></defs><g fill="currentColor" stroke="currentColor" stroke-width="0" transform="scale(1 -1)"><use xlink:href="#a"/><use x="775" xlink:href="#b"/><g transform="translate(1950)"><path stroke="none" d="M0 220h692v60H0z"/><use x="60" y="676" xlink:href="#c"/><use x="103" y="-686" xlink:href="#d"/></g></g></svg>